<svg id="visual" viewBox="0 0 960 200" width="960" height="200" xmlns="http://www.w3.org/2000/svg" xmlns:xlink="http://www.w3.org/1999/xlink" version="1.1"><path d="M0 77L22.8 75.7C45.7 74.3 91.3 71.7 137 76.3C182.7 81 228.3 93 274 94.3C319.7 95.7 365.3 86.3 411.2 80C457 73.7 503 70.3 548.8 76.5C594.7 82.7 640.3 98.3 686 103.2C731.7 108 777.3 102 823 100C868.7 98 914.3 100 937.2 101L960 102L960 201L937.2 201C914.3 201 868.7 201 823 201C777.3 201 731.7 201 686 201C640.3 201 594.7 201 548.8 201C503 201 457 201 411.2 201C365.3 201 319.7 201 274 201C228.3 201 182.7 201 137 201C91.3 201 45.7 201 22.8 201L0 201Z" fill="#d53867"></path><path d="M0 104L22.8 104.8C45.7 105.7 91.3 107.3 137 108C182.7 108.7 228.3 108.3 274 106.8C319.7 105.3 365.3 102.7 411.2 103.3C457 104 503 108 548.8 112C594.7 116 640.3 120 686 121.2C731.7 122.3 777.3 120.7 823 117.2C868.7 113.7 914.3 108.3 937.2 105.7L960 103L960 201L937.2 201C914.3 201 868.7 201 823 201C777.3 201 731.7 201 686 201C640.3 201 594.7 201 548.8 201C503 201 457 201 411.2 201C365.3 201 319.7 201 274 201C228.3 201 182.7 201 137 201C91.3 201 45.7 201 22.8 201L0 201Z" fill="#9c3375"></path><path d="M0 114L22.8 114.2C45.7 114.3 91.3 114.7 137 116.3C182.7 118 228.3 121 274 121.5C319.7 122 365.3 120 411.2 124.2C457 128.3 503 138.7 548.8 142.5C594.7 146.3 640.3 143.7 686 138.7C731.7 133.7 777.3 126.3 823 121.8C868.7 117.3 914.3 115.7 937.2 114.8L960 114L960 201L937.2 201C914.3 201 868.7 201 823 201C777.3 201 731.7 201 686 201C640.3 201 594.7 201 548.8 201C503 201 457 201 411.2 201C365.3 201 319.7 201 274 201C228.3 201 182.7 201 137 201C91.3 201 45.7 201 22.8 201L0 201Z" fill="#5c336e"></path><path d="M0 140L22.8 142.7C45.7 145.3 91.3 150.7 137 154C182.7 157.3 228.3 158.7 274 157.2C319.7 155.7 365.3 151.3 411.2 147.7C457 144 503 141 548.8 144C594.7 147 640.3 156 686 159.7C731.7 163.3 777.3 161.7 823 159C868.7 156.3 914.3 152.7 937.2 150.8L960 149L960 201L937.2 201C914.3 201 868.7 201 823 201C777.3 201 731.7 201 686 201C640.3 201 594.7 201 548.8 201C503 201 457 201 411.2 201C365.3 201 319.7 201 274 201C228.3 201 182.7 201 137 201C91.3 201 45.7 201 22.8 201L0 201Z" fill="#232a53"></path><path d="M0 179L22.8 177.7C45.7 176.3 91.3 173.7 137 173.8C182.7 174 228.3 177 274 177.5C319.7 178 365.3 176 411.2 175.2C457 174.3 503 174.7 548.8 172.2C594.7 169.7 640.3 164.3 686 165.5C731.7 166.7 777.3 174.3 823 176.2C868.7 178 914.3 174 937.2 172L960 170L960 201L937.2 201C914.3 201 868.7 201 823 201C777.3 201 731.7 201 686 201C640.3 201 594.7 201 548.8 201C503 201 457 201 411.2 201C365.3 201 319.7 201 274 201C228.3 201 182.7 201 137 201C91.3 201 45.7 201 22.8 201L0 201Z" fill="#001a2e"></path></svg>
