<svg id="visual" viewBox="0 0 960 200" width="960" height="200" xmlns="http://www.w3.org/2000/svg" xmlns:xlink="http://www.w3.org/1999/xlink" version="1.1"><path d="M0 90L16 93.5C32 97 64 104 96 109C128 114 160 117 192 112.5C224 108 256 96 288 92.7C320 89.3 352 94.7 384 96.2C416 97.7 448 95.3 480 92.3C512 89.3 544 85.7 576 84C608 82.3 640 82.7 672 84.8C704 87 736 91 768 94.3C800 97.7 832 100.3 864 98.8C896 97.3 928 91.7 944 88.8L960 86L960 0L944 0C928 0 896 0 864 0C832 0 800 0 768 0C736 0 704 0 672 0C640 0 608 0 576 0C544 0 512 0 480 0C448 0 416 0 384 0C352 0 320 0 288 0C256 0 224 0 192 0C160 0 128 0 96 0C64 0 32 0 16 0L0 0Z" fill="#d53867"></path><path d="M0 94L16 95C32 96 64 98 96 93.5C128 89 160 78 192 77.5C224 77 256 87 288 91.3C320 95.7 352 94.3 384 91.2C416 88 448 83 480 85C512 87 544 96 576 97.3C608 98.7 640 92.3 672 89.8C704 87.3 736 88.7 768 91.3C800 94 832 98 864 94C896 90 928 78 944 72L960 66L960 0L944 0C928 0 896 0 864 0C832 0 800 0 768 0C736 0 704 0 672 0C640 0 608 0 576 0C544 0 512 0 480 0C448 0 416 0 384 0C352 0 320 0 288 0C256 0 224 0 192 0C160 0 128 0 96 0C64 0 32 0 16 0L0 0Z" fill="#9c3375"></path><path d="M0 63L16 66.7C32 70.3 64 77.7 96 76.2C128 74.7 160 64.3 192 58.2C224 52 256 50 288 50.2C320 50.3 352 52.7 384 58.8C416 65 448 75 480 79C512 83 544 81 576 76.8C608 72.7 640 66.3 672 61.5C704 56.7 736 53.3 768 52.5C800 51.7 832 53.3 864 57.3C896 61.3 928 67.7 944 70.8L960 74L960 0L944 0C928 0 896 0 864 0C832 0 800 0 768 0C736 0 704 0 672 0C640 0 608 0 576 0C544 0 512 0 480 0C448 0 416 0 384 0C352 0 320 0 288 0C256 0 224 0 192 0C160 0 128 0 96 0C64 0 32 0 16 0L0 0Z" fill="#5c336e"></path><path d="M0 56L16 53C32 50 64 44 96 39.8C128 35.7 160 33.3 192 34.8C224 36.3 256 41.7 288 44.7C320 47.7 352 48.3 384 47.8C416 47.3 448 45.7 480 43.8C512 42 544 40 576 38.5C608 37 640 36 672 35.8C704 35.7 736 36.3 768 38.7C800 41 832 45 864 48.3C896 51.7 928 54.3 944 55.7L960 57L960 0L944 0C928 0 896 0 864 0C832 0 800 0 768 0C736 0 704 0 672 0C640 0 608 0 576 0C544 0 512 0 480 0C448 0 416 0 384 0C352 0 320 0 288 0C256 0 224 0 192 0C160 0 128 0 96 0C64 0 32 0 16 0L0 0Z" fill="#232a53"></path><path d="M0 30L16 27.3C32 24.7 64 19.3 96 19.3C128 19.3 160 24.7 192 26.7C224 28.7 256 27.3 288 24.5C320 21.7 352 17.3 384 16.7C416 16 448 19 480 20.8C512 22.7 544 23.3 576 24.7C608 26 640 28 672 28.7C704 29.3 736 28.7 768 27.8C800 27 832 26 864 24.2C896 22.3 928 19.7 944 18.3L960 17L960 0L944 0C928 0 896 0 864 0C832 0 800 0 768 0C736 0 704 0 672 0C640 0 608 0 576 0C544 0 512 0 480 0C448 0 416 0 384 0C352 0 320 0 288 0C256 0 224 0 192 0C160 0 128 0 96 0C64 0 32 0 16 0L0 0Z" fill="#001a2e"></path></svg>
