<svg id="visual" viewBox="0 0 960 200" width="960" height="200" xmlns="http://www.w3.org/2000/svg" xmlns:xlink="http://www.w3.org/1999/xlink" version="1.1"><path d="M0 40L14.5 40C29 40 58 40 87.2 46.5C116.3 53 145.7 66 174.8 70.8C204 75.7 233 72.3 262 75.2C291 78 320 87 349 82.8C378 78.7 407 61.3 436.2 61.5C465.3 61.7 494.7 79.3 523.8 88.8C553 98.3 582 99.7 611 93.3C640 87 669 73 698 72.8C727 72.7 756 86.3 785.2 87C814.3 87.7 843.7 75.3 872.8 69.2C902 63 931 63 945.5 63L960 63L960 201L945.5 201C931 201 902 201 872.8 201C843.7 201 814.3 201 785.2 201C756 201 727 201 698 201C669 201 640 201 611 201C582 201 553 201 523.8 201C494.7 201 465.3 201 436.2 201C407 201 378 201 349 201C320 201 291 201 262 201C233 201 204 201 174.8 201C145.7 201 116.3 201 87.2 201C58 201 29 201 14.5 201L0 201Z" fill="#d53867"></path><path d="M0 92L14.5 97.3C29 102.7 58 113.3 87.2 115.7C116.3 118 145.7 112 174.8 108.2C204 104.3 233 102.7 262 99.5C291 96.3 320 91.7 349 91.7C378 91.7 407 96.3 436.2 94.3C465.3 92.3 494.7 83.7 523.8 80.5C553 77.3 582 79.7 611 81.8C640 84 669 86 698 87.7C727 89.3 756 90.7 785.2 95.5C814.3 100.3 843.7 108.7 872.8 108.5C902 108.3 931 99.7 945.5 95.3L960 91L960 201L945.5 201C931 201 902 201 872.8 201C843.7 201 814.3 201 785.2 201C756 201 727 201 698 201C669 201 640 201 611 201C582 201 553 201 523.8 201C494.7 201 465.3 201 436.2 201C407 201 378 201 349 201C320 201 291 201 262 201C233 201 204 201 174.8 201C145.7 201 116.3 201 87.2 201C58 201 29 201 14.5 201L0 201Z" fill="#873475"></path><path d="M0 149L14.5 149.3C29 149.7 58 150.3 87.2 146.3C116.3 142.3 145.7 133.7 174.8 127C204 120.3 233 115.7 262 113C291 110.3 320 109.7 349 114.7C378 119.7 407 130.3 436.2 137.7C465.3 145 494.7 149 523.8 148.5C553 148 582 143 611 142.2C640 141.3 669 144.7 698 143.5C727 142.3 756 136.7 785.2 137.3C814.3 138 843.7 145 872.8 142.7C902 140.3 931 128.7 945.5 122.8L960 117L960 201L945.5 201C931 201 902 201 872.8 201C843.7 201 814.3 201 785.2 201C756 201 727 201 698 201C669 201 640 201 611 201C582 201 553 201 523.8 201C494.7 201 465.3 201 436.2 201C407 201 378 201 349 201C320 201 291 201 262 201C233 201 204 201 174.8 201C145.7 201 116.3 201 87.2 201C58 201 29 201 14.5 201L0 201Z" fill="#352e5e"></path><path d="M0 177L14.5 174.2C29 171.3 58 165.7 87.2 165.5C116.3 165.3 145.7 170.7 174.8 170C204 169.3 233 162.7 262 157.7C291 152.7 320 149.3 349 150.3C378 151.3 407 156.7 436.2 161.8C465.3 167 494.7 172 523.8 171.2C553 170.3 582 163.7 611 161C640 158.3 669 159.7 698 163.2C727 166.7 756 172.3 785.2 173.5C814.3 174.7 843.7 171.3 872.8 166.2C902 161 931 154 945.5 150.5L960 147L960 201L945.5 201C931 201 902 201 872.8 201C843.7 201 814.3 201 785.2 201C756 201 727 201 698 201C669 201 640 201 611 201C582 201 553 201 523.8 201C494.7 201 465.3 201 436.2 201C407 201 378 201 349 201C320 201 291 201 262 201C233 201 204 201 174.8 201C145.7 201 116.3 201 87.2 201C58 201 29 201 14.5 201L0 201Z" fill="#001a2e"></path></svg>