<svg id="visual" viewBox="0 0 960 200" width="960" height="200" xmlns="http://www.w3.org/2000/svg" xmlns:xlink="http://www.w3.org/1999/xlink" version="1.1"><path d="M0 156L12.3 156.2C24.7 156.3 49.3 156.7 74 153.8C98.7 151 123.3 145 148 141.2C172.7 137.3 197.3 135.7 221.8 133C246.3 130.3 270.7 126.7 295.2 125C319.7 123.3 344.3 123.7 369 126.5C393.7 129.3 418.3 134.7 443 132C467.7 129.3 492.3 118.7 517 116.5C541.7 114.3 566.3 120.7 591 120.8C615.7 121 640.3 115 664.8 120C689.3 125 713.7 141 738.2 145C762.7 149 787.3 141 812 137C836.7 133 861.3 133 886 131.3C910.7 129.7 935.3 126.3 947.7 124.7L960 123L960 0L947.7 0C935.3 0 910.7 0 886 0C861.3 0 836.7 0 812 0C787.3 0 762.7 0 738.2 0C713.7 0 689.3 0 664.8 0C640.3 0 615.7 0 591 0C566.3 0 541.7 0 517 0C492.3 0 467.7 0 443 0C418.3 0 393.7 0 369 0C344.3 0 319.7 0 295.2 0C270.7 0 246.3 0 221.8 0C197.3 0 172.7 0 148 0C123.3 0 98.7 0 74 0C49.3 0 24.7 0 12.3 0L0 0Z" fill="#d53867"></path><path d="M0 94L12.3 92.7C24.7 91.3 49.3 88.7 74 87.2C98.7 85.7 123.3 85.3 148 90C172.7 94.7 197.3 104.3 221.8 105.2C246.3 106 270.7 98 295.2 96.7C319.7 95.3 344.3 100.7 369 107.3C393.7 114 418.3 122 443 125.3C467.7 128.7 492.3 127.3 517 128.3C541.7 129.3 566.3 132.7 591 127C615.7 121.3 640.3 106.7 664.8 97.5C689.3 88.3 713.7 84.7 738.2 90.3C762.7 96 787.3 111 812 117.7C836.7 124.3 861.3 122.7 886 122.7C910.7 122.7 935.3 124.3 947.7 125.2L960 126L960 0L947.7 0C935.3 0 910.7 0 886 0C861.3 0 836.7 0 812 0C787.3 0 762.7 0 738.2 0C713.7 0 689.3 0 664.8 0C640.3 0 615.7 0 591 0C566.3 0 541.7 0 517 0C492.3 0 467.7 0 443 0C418.3 0 393.7 0 369 0C344.3 0 319.7 0 295.2 0C270.7 0 246.3 0 221.8 0C197.3 0 172.7 0 148 0C123.3 0 98.7 0 74 0C49.3 0 24.7 0 12.3 0L0 0Z" fill="#a53873"></path><path d="M0 80L12.3 83C24.7 86 49.3 92 74 91.3C98.7 90.7 123.3 83.3 148 77C172.7 70.7 197.3 65.3 221.8 64.8C246.3 64.3 270.7 68.7 295.2 70.3C319.7 72 344.3 71 369 72.3C393.7 73.7 418.3 77.3 443 83.3C467.7 89.3 492.3 97.7 517 94C541.7 90.3 566.3 74.7 591 73.3C615.7 72 640.3 85 664.8 88C689.3 91 713.7 84 738.2 84C762.7 84 787.3 91 812 92.8C836.7 94.7 861.3 91.3 886 92.2C910.7 93 935.3 98 947.7 100.5L960 103L960 0L947.7 0C935.3 0 910.7 0 886 0C861.3 0 836.7 0 812 0C787.3 0 762.7 0 738.2 0C713.7 0 689.3 0 664.8 0C640.3 0 615.7 0 591 0C566.3 0 541.7 0 517 0C492.3 0 467.7 0 443 0C418.3 0 393.7 0 369 0C344.3 0 319.7 0 295.2 0C270.7 0 246.3 0 221.8 0C197.3 0 172.7 0 148 0C123.3 0 98.7 0 74 0C49.3 0 24.7 0 12.3 0L0 0Z" fill="#71396e"></path><path d="M0 56L12.3 54.8C24.7 53.7 49.3 51.3 74 53.7C98.7 56 123.3 63 148 63.2C172.7 63.3 197.3 56.7 221.8 51.5C246.3 46.3 270.7 42.7 295.2 41.3C319.7 40 344.3 41 369 40.7C393.7 40.3 418.3 38.7 443 40.5C467.7 42.3 492.3 47.7 517 53C541.7 58.3 566.3 63.7 591 66C615.7 68.3 640.3 67.7 664.8 68.7C689.3 69.7 713.7 72.3 738.2 70.8C762.7 69.3 787.3 63.7 812 61C836.7 58.3 861.3 58.7 886 59.5C910.7 60.3 935.3 61.7 947.7 62.3L960 63L960 0L947.7 0C935.3 0 910.7 0 886 0C861.3 0 836.7 0 812 0C787.3 0 762.7 0 738.2 0C713.7 0 689.3 0 664.8 0C640.3 0 615.7 0 591 0C566.3 0 541.7 0 517 0C492.3 0 467.7 0 443 0C418.3 0 393.7 0 369 0C344.3 0 319.7 0 295.2 0C270.7 0 246.3 0 221.8 0C197.3 0 172.7 0 148 0C123.3 0 98.7 0 74 0C49.3 0 24.7 0 12.3 0L0 0Z" fill="#43345a"></path><path d="M0 30L12.3 32.2C24.7 34.3 49.3 38.7 74 41C98.7 43.3 123.3 43.7 148 40.2C172.7 36.7 197.3 29.3 221.8 24.7C246.3 20 270.7 18 295.2 21.2C319.7 24.3 344.3 32.7 369 33.3C393.7 34 418.3 27 443 27.2C467.7 27.3 492.3 34.7 517 35.8C541.7 37 566.3 32 591 31C615.7 30 640.3 33 664.8 34.5C689.3 36 713.7 36 738.2 36.8C762.7 37.7 787.3 39.3 812 39.5C836.7 39.7 861.3 38.3 886 37.8C910.7 37.3 935.3 37.7 947.7 37.8L960 38L960 0L947.7 0C935.3 0 910.7 0 886 0C861.3 0 836.7 0 812 0C787.3 0 762.7 0 738.2 0C713.7 0 689.3 0 664.8 0C640.3 0 615.7 0 591 0C566.3 0 541.7 0 517 0C492.3 0 467.7 0 443 0C418.3 0 393.7 0 369 0C344.3 0 319.7 0 295.2 0C270.7 0 246.3 0 221.8 0C197.3 0 172.7 0 148 0C123.3 0 98.7 0 74 0C49.3 0 24.7 0 12.3 0L0 0Z" fill="#24283b"></path></svg>