<svg id="visual" viewBox="0 0 960 200" width="960" height="200" xmlns="http://www.w3.org/2000/svg" xmlns:xlink="http://www.w3.org/1999/xlink" version="1.1"><path d="M0 88L12.3 79.7C24.7 71.3 49.3 54.7 74 49.8C98.7 45 123.3 52 148 62C172.7 72 197.3 85 221.8 83.7C246.3 82.3 270.7 66.7 295.2 62.5C319.7 58.3 344.3 65.7 369 68.5C393.7 71.3 418.3 69.7 443 64.7C467.7 59.7 492.3 51.3 517 49.7C541.7 48 566.3 53 591 53C615.7 53 640.3 48 664.8 44.2C689.3 40.3 713.7 37.7 738.2 45.8C762.7 54 787.3 73 812 79.8C836.7 86.7 861.3 81.3 886 73.8C910.7 66.3 935.3 56.7 947.7 51.8L960 47L960 201L947.7 201C935.3 201 910.7 201 886 201C861.3 201 836.7 201 812 201C787.3 201 762.7 201 738.2 201C713.7 201 689.3 201 664.8 201C640.3 201 615.7 201 591 201C566.3 201 541.7 201 517 201C492.3 201 467.7 201 443 201C418.3 201 393.7 201 369 201C344.3 201 319.7 201 295.2 201C270.7 201 246.3 201 221.8 201C197.3 201 172.7 201 148 201C123.3 201 98.7 201 74 201C49.3 201 24.7 201 12.3 201L0 201Z" fill="#d53867"></path><path d="M0 96L12.3 98.3C24.7 100.7 49.3 105.3 74 100.8C98.7 96.3 123.3 82.7 148 82.2C172.7 81.7 197.3 94.3 221.8 101C246.3 107.7 270.7 108.3 295.2 106.7C319.7 105 344.3 101 369 101.7C393.7 102.3 418.3 107.7 443 104.5C467.7 101.3 492.3 89.7 517 85.3C541.7 81 566.3 84 591 81.5C615.7 79 640.3 71 664.8 74.2C689.3 77.3 713.7 91.7 738.2 94.7C762.7 97.7 787.3 89.3 812 89.3C836.7 89.3 861.3 97.7 886 101.8C910.7 106 935.3 106 947.7 106L960 106L960 201L947.7 201C935.3 201 910.7 201 886 201C861.3 201 836.7 201 812 201C787.3 201 762.7 201 738.2 201C713.7 201 689.3 201 664.8 201C640.3 201 615.7 201 591 201C566.3 201 541.7 201 517 201C492.3 201 467.7 201 443 201C418.3 201 393.7 201 369 201C344.3 201 319.7 201 295.2 201C270.7 201 246.3 201 221.8 201C197.3 201 172.7 201 148 201C123.3 201 98.7 201 74 201C49.3 201 24.7 201 12.3 201L0 201Z" fill="#973373"></path><path d="M0 108L12.3 108.7C24.7 109.3 49.3 110.7 74 108C98.7 105.3 123.3 98.7 148 99.2C172.7 99.7 197.3 107.3 221.8 113.3C246.3 119.3 270.7 123.7 295.2 122.3C319.7 121 344.3 114 369 108.2C393.7 102.3 418.3 97.7 443 102.8C467.7 108 492.3 123 517 128.5C541.7 134 566.3 130 591 128.3C615.7 126.7 640.3 127.3 664.8 122.5C689.3 117.7 713.7 107.3 738.2 102.2C762.7 97 787.3 97 812 96C836.7 95 861.3 93 886 99.3C910.7 105.7 935.3 120.3 947.7 127.7L960 135L960 201L947.7 201C935.3 201 910.7 201 886 201C861.3 201 836.7 201 812 201C787.3 201 762.7 201 738.2 201C713.7 201 689.3 201 664.8 201C640.3 201 615.7 201 591 201C566.3 201 541.7 201 517 201C492.3 201 467.7 201 443 201C418.3 201 393.7 201 369 201C344.3 201 319.7 201 295.2 201C270.7 201 246.3 201 221.8 201C197.3 201 172.7 201 148 201C123.3 201 98.7 201 74 201C49.3 201 24.7 201 12.3 201L0 201Z" fill="#553168"></path><path d="M0 126L12.3 129.5C24.7 133 49.3 140 74 139.7C98.7 139.3 123.3 131.7 148 133.5C172.7 135.3 197.3 146.7 221.8 151.7C246.3 156.7 270.7 155.3 295.2 149.7C319.7 144 344.3 134 369 129.7C393.7 125.3 418.3 126.7 443 126.2C467.7 125.7 492.3 123.3 517 125.5C541.7 127.7 566.3 134.3 591 140.5C615.7 146.7 640.3 152.3 664.8 155.2C689.3 158 713.7 158 738.2 155.2C762.7 152.3 787.3 146.7 812 145C836.7 143.3 861.3 145.7 886 143.7C910.7 141.7 935.3 135.3 947.7 132.2L960 129L960 201L947.7 201C935.3 201 910.7 201 886 201C861.3 201 836.7 201 812 201C787.3 201 762.7 201 738.2 201C713.7 201 689.3 201 664.8 201C640.3 201 615.7 201 591 201C566.3 201 541.7 201 517 201C492.3 201 467.7 201 443 201C418.3 201 393.7 201 369 201C344.3 201 319.7 201 295.2 201C270.7 201 246.3 201 221.8 201C197.3 201 172.7 201 148 201C123.3 201 98.7 201 74 201C49.3 201 24.7 201 12.3 201L0 201Z" fill="#1d2649"></path><path d="M0 180L12.3 179.3C24.7 178.7 49.3 177.3 74 174.3C98.7 171.3 123.3 166.7 148 164C172.7 161.3 197.3 160.7 221.8 162.7C246.3 164.7 270.7 169.3 295.2 171.8C319.7 174.3 344.3 174.7 369 175.3C393.7 176 418.3 177 443 173C467.7 169 492.3 160 517 157.2C541.7 154.3 566.3 157.7 591 159.5C615.7 161.3 640.3 161.7 664.8 162.5C689.3 163.3 713.7 164.7 738.2 163.7C762.7 162.7 787.3 159.3 812 156.8C836.7 154.3 861.3 152.7 886 156.2C910.7 159.7 935.3 168.3 947.7 172.7L960 177L960 201L947.7 201C935.3 201 910.7 201 886 201C861.3 201 836.7 201 812 201C787.3 201 762.7 201 738.2 201C713.7 201 689.3 201 664.8 201C640.3 201 615.7 201 591 201C566.3 201 541.7 201 517 201C492.3 201 467.7 201 443 201C418.3 201 393.7 201 369 201C344.3 201 319.7 201 295.2 201C270.7 201 246.3 201 221.8 201C197.3 201 172.7 201 148 201C123.3 201 98.7 201 74 201C49.3 201 24.7 201 12.3 201L0 201Z" fill="#001220"></path></svg>