<svg id="visual" viewBox="0 0 960 200" width="960" height="200" xmlns="http://www.w3.org/2000/svg" xmlns:xlink="http://www.w3.org/1999/xlink" version="1.1"><path d="M0 139L16 132.3C32 125.7 64 112.3 96 105.5C128 98.7 160 98.3 192 109C224 119.7 256 141.3 288 141.3C320 141.3 352 119.7 384 116.2C416 112.7 448 127.3 480 129C512 130.7 544 119.3 576 121.8C608 124.3 640 140.7 672 146.8C704 153 736 149 768 138.8C800 128.7 832 112.3 864 112.2C896 112 928 128 944 136L960 144L960 0L944 0C928 0 896 0 864 0C832 0 800 0 768 0C736 0 704 0 672 0C640 0 608 0 576 0C544 0 512 0 480 0C448 0 416 0 384 0C352 0 320 0 288 0C256 0 224 0 192 0C160 0 128 0 96 0C64 0 32 0 16 0L0 0Z" fill="#d53867"></path><path d="M0 96L16 95.3C32 94.7 64 93.3 96 90.5C128 87.7 160 83.3 192 84.8C224 86.3 256 93.7 288 99.8C320 106 352 111 384 115.5C416 120 448 124 480 119C512 114 544 100 576 95.3C608 90.7 640 95.3 672 96.5C704 97.7 736 95.3 768 92.7C800 90 832 87 864 92.2C896 97.3 928 110.7 944 117.3L960 124L960 0L944 0C928 0 896 0 864 0C832 0 800 0 768 0C736 0 704 0 672 0C640 0 608 0 576 0C544 0 512 0 480 0C448 0 416 0 384 0C352 0 320 0 288 0C256 0 224 0 192 0C160 0 128 0 96 0C64 0 32 0 16 0L0 0Z" fill="#873475"></path><path d="M0 68L16 66.2C32 64.3 64 60.7 96 61.2C128 61.7 160 66.3 192 64.8C224 63.3 256 55.7 288 56.5C320 57.3 352 66.7 384 71.2C416 75.7 448 75.3 480 74.3C512 73.3 544 71.7 576 72.8C608 74 640 78 672 78.5C704 79 736 76 768 76.8C800 77.7 832 82.3 864 79C896 75.7 928 64.3 944 58.7L960 53L960 0L944 0C928 0 896 0 864 0C832 0 800 0 768 0C736 0 704 0 672 0C640 0 608 0 576 0C544 0 512 0 480 0C448 0 416 0 384 0C352 0 320 0 288 0C256 0 224 0 192 0C160 0 128 0 96 0C64 0 32 0 16 0L0 0Z" fill="#352e5e"></path><path d="M0 40L16 42.2C32 44.3 64 48.7 96 49.8C128 51 160 49 192 44.2C224 39.3 256 31.7 288 32.3C320 33 352 42 384 44.7C416 47.3 448 43.7 480 39.3C512 35 544 30 576 28.5C608 27 640 29 672 33.2C704 37.3 736 43.7 768 48.2C800 52.7 832 55.3 864 52C896 48.7 928 39.3 944 34.7L960 30L960 0L944 0C928 0 896 0 864 0C832 0 800 0 768 0C736 0 704 0 672 0C640 0 608 0 576 0C544 0 512 0 480 0C448 0 416 0 384 0C352 0 320 0 288 0C256 0 224 0 192 0C160 0 128 0 96 0C64 0 32 0 16 0L0 0Z" fill="#001a2e"></path></svg>